C:\GBW_MyPrograms\PredSimResults\Vitruvian_man\IG_v45ms_40.mot
version=1
nRows=16
nColumns=35
inDegrees=yes
endheader
                time	         pelvis_tilt	           pelvis_tx	           pelvis_ty	       hip_flexion_r	        knee_angle_r	       ankle_angle_r	         mtp_angle_r	       hip_flexion_l	        knee_angle_l	       ankle_angle_l	         mtp_angle_l	    lumbar_extension	          arm_flex_r	          arm_flex_l	        elbow_flex_r	        elbow_flex_l	hamstrings_r/activation	bifemsh_r/activation	glut_max_r/activation	iliopsoas_r/activation	rect_fem_r/activation	  vasti_r/activation	gastroc_r/activation	 soleus_r/activation	tib_ant_r/activation	hamstrings_l/activation	bifemsh_l/activation	glut_max_l/activation	iliopsoas_l/activation	rect_fem_l/activation	  vasti_l/activation	gastroc_l/activation	 soleus_l/activation	tib_ant_l/activation	
          0.78039074	        -14.25989182	          3.48841466	          0.95851335	          3.80520825	        -41.76192556	        -28.89281017	         12.22476162	         48.81086754	        -26.91110001	        -19.57431627	         -0.21133671	        -15.25931411	        -44.92234874	        -44.92234874	          3.92962101	          3.92962100	          0.06846545	          0.99958690	          0.06988129	          0.99925152	          0.99668302	          0.06939853	          0.54002802	          0.31281567	          0.37353440	          0.95624334	          0.07869971	          0.99900492	          0.05953556	          0.06416590	          0.22404390	          0.06416686	          0.06416689	          0.35470402	
          0.78559335	        -14.11778411	          3.51175509	          0.95778788	          4.41216158	        -43.10669586	        -27.44870731	         11.47474330	         47.89374617	        -25.79452754	        -18.94001693	         -0.53675524	        -15.50370771	        -43.84593631	        -43.84593631	          5.04930940	          5.04930940	          0.06300254	          0.99969317	          0.06430538	          0.99944425	          0.99753716	          0.06386114	          0.65833463	          0.28785580	          0.34373600	          0.96751158	          0.07242027	          0.99926096	          0.06973298	          0.05904671	          0.20616733	          0.05904693	          0.05904693	          0.52088158	
          0.79079595	        -14.00288253	          3.53508277	          0.95684867	          5.14750038	        -44.47524908	        -26.56471865	         10.76626385	         47.00460146	        -25.10736751	        -17.64777402	         -1.01496151	        -15.70254850	        -42.67632352	        -42.67632352	          6.26745049	          6.26745049	          0.05797558	          0.99977208	          0.05917438	          0.99958733	          0.99817133	          0.05876560	          0.60581098	          0.26488749	          0.46175106	          0.97587800	          0.16016191	          0.99945118	          0.06416953	          0.05433540	          0.18971704	          0.05433550	          0.05433550	          0.64426485	
          0.79599856	        -13.91599149	          3.55839567	          0.95566046	          6.01194248	        -45.89613396	        -25.92201591	         10.06139543	         46.15988701	        -24.93746828	        -15.75605683	         -1.66205084	        -15.85281538	        -41.46939744	        -41.46939744	          7.58850749	          7.58850749	          0.05334983	          0.99983066	          0.05445280	          0.99969357	          0.99864219	          0.05407665	          0.55747718	          0.24375186	          0.42491384	          0.98208979	          0.14738258	          0.99959245	          0.05904986	          0.05000024	          0.39838223	          0.05000001	          0.05000000	          0.71549964	
          0.80120116	        -13.85590391	          3.58170176	          0.95420405	          6.99995024	        -47.39004706	        -25.18031066	          9.38377719	         45.34870402	        -25.33983186	        -13.36692129	         -2.42513008	        -15.95417944	        -40.30638777	        -40.30638776	          9.04783488	          9.04783488	          0.05000029	          0.99987416	          0.05010798	          0.99977244	          0.99899178	          0.05000010	          0.51300080	          0.22430268	          0.39101235	          0.90372954	          0.13562279	          0.99969735	          0.05433895	          0.05433798	          0.55331171	          0.06973139	          0.05156269	          0.65840897	
          0.80640377	        -13.82238872	          3.60499854	          0.95250388	          8.10941464	        -48.95179510	        -24.34269923	          8.75830835	         44.53469153	        -26.32213128	        -10.38021887	         -2.87607237	        -16.00929124	        -39.23667096	        -39.23667096	         10.62752055	         10.62752054	          0.05000047	          0.99990645	          0.05000012	          0.99983098	          0.99925133	          0.05000014	          0.47207037	          0.20640536	          0.39507565	          0.83163221	          0.12480131	          0.99977526	          0.05000354	          0.05000440	          0.66834353	          0.06416747	          0.09555808	          0.60587364	
          0.81160637	        -13.81727891	          3.62827393	          0.95062140	          9.34093525	        -50.56234923	        -23.54001674	          8.17847779	         43.64842820	        -27.68307723	         -6.75278624	         -2.69945282	        -16.02151019	        -38.26848977	        -38.26848977	         12.22337170	         12.22337169	          0.05055633	          0.99993041	          0.05000031	          0.99987443	          0.99944403	          0.05000016	          0.43440490	          0.18993608	          0.47614065	          0.87498581	          0.11484330	          0.99983310	          0.05000018	          0.05000230	          0.75375218	          0.05904748	          0.08793338	          0.55753018	
          0.81680898	        -13.84121887	          3.65147458	          0.94866253	         10.69783697	        -52.20996633	        -22.76917433	          7.62452761	         42.62549891	        -28.89828054	         -2.86937414	         -2.14234938	        -16.00312448	        -37.40090317	        -37.40090316	         13.74961861	         13.74961860	          0.05033779	          0.99994820	          0.05000024	          0.99990668	          0.99958710	          0.05000015	          0.39974447	          0.17478090	          0.48991022	          0.86623129	          0.10567986	          0.99987605	          0.05000029	          0.05000047	          0.81716626	          0.05433605	          0.08091708	          0.51304411	
          0.82201158	        -13.89396974	          3.67444364	          0.94677676	         12.19705121	        -53.89707666	        -21.96758638	          7.09640660	         41.57553711	        -29.92644798	          0.56658083	         -1.59999407	        -15.98252730	        -36.63403711	        -36.63403711	         15.18513691	         15.18513691	          0.05000101	          0.99996140	          0.05000022	          0.99993061	          0.99969331	          0.05000014	          0.36784941	          0.16083497	          0.52061249	          0.79711845	          0.09724758	          0.99990794	          0.05000030	          0.05000073	          0.86424986	          0.05000062	          0.07446064	          0.47210764	
          0.82721419	        -13.97192004	          3.69708659	          0.94506757	         13.84120188	        -55.61585513	        -21.10213221	          6.59703621	         40.62301032	        -30.98186295	          3.59465196	         -1.07406563	        -15.98123515	        -35.96769469	        -35.96769468	         16.50547899	         16.50547899	          0.05000127	          0.99997119	          0.05000022	          0.99994835	          0.99977214	          0.05000014	          0.33849913	          0.14800180	          0.53716877	          0.76844763	          0.08948813	          0.99993161	          0.05000029	          0.05000068	          0.89920842	          0.05000027	          0.06852047	          0.43443755	
          0.83241679	        -14.07603458	          3.71943098	          0.94355548	         15.61968606	        -57.34579783	        -20.16710299	          6.13042577	         39.78666089	        -32.10341638	          6.20800416	         -0.53679687	        -15.99520701	        -35.40226996	        -35.40226996	         17.68590438	         17.68590437	          0.05000123	          0.99997843	          0.05000021	          0.99996147	          0.99983060	          0.05000014	          0.31149061	          0.13619260	          0.54704032	          0.77454474	          0.08234782	          0.99994919	          0.05000028	          0.05000068	          0.92516441	          0.05000031	          0.30839629	          0.39977320	
          0.83761940	        -14.20833346	          3.74155449	          0.94223160	         17.51646004	        -59.06178634	        -19.19687920	          5.69847043	         39.01381990	        -33.19886497	          8.31960913	          0.05821558	        -16.01072106	        -34.93828172	        -34.93828172	         18.72193403	         18.72193402	          0.05000100	          0.99998379	          0.05000021	          0.99997112	          0.99987390	          0.05000014	          0.28663704	          0.12532568	          0.53433077	          0.77597941	          0.07577726	          0.99996224	          0.05000028	          0.05000068	          0.94443616	          0.05000032	          0.48649898	          0.36787477	
          0.84282200	        -14.36988477	          3.76354328	          0.94107699	         19.51433808	        -60.74118169	        -18.24289050	          5.29935577	         38.24006490	        -34.18084890	         10.03731677	          0.72928189	        -16.01324438	        -34.57587306	        -34.57587306	         19.61330066	         19.61330066	          0.05000079	          0.99998772	          0.05000020	          0.99997810	          0.99990578	          0.05000015	          0.26376648	          0.11532584	          0.54181244	          0.79258651	          0.06973098	          0.99997193	          0.05000028	          0.05000071	          0.95874503	          0.05000070	          0.61873644	          0.33852155	
          0.84802461	        -14.56082101	          3.78546896	          0.94007486	         21.59757746	        -62.36761357	        -17.32283257	          4.92513617	         37.41860000	        -34.98829987	         11.44393441	          1.51463230	        -15.99118606	        -34.31504086	        -34.31504085	         20.36002823	         20.36002822	          0.05000110	          0.99999057	          0.05000022	          0.99998280	          0.99992850	          0.05000015	          0.24272072	          0.10612391	          0.55741077	          0.81767690	          0.06416715	          0.99997912	          0.05000025	          0.05000063	          0.96936906	          0.29464524	          0.71691995	          0.31151047	
          0.85322721	        -14.78113064	          3.80738205	          0.93921458	         23.75301776	        -63.93079123	        -16.40376155	          4.57109596	         36.52776050	        -35.59443095	         12.57965242	          2.44965932	        -15.93604241	        -34.15578265	        -34.15578264	         20.96209581	         20.96209581	          0.05000101	          0.99999261	          0.05000022	          0.99998528	          0.99994085	          0.05000016	          0.22335417	          0.09765621	          0.54211798	          0.83208918	          0.05904731	          0.99998446	          0.05000024	          0.05000064	          0.97725717	          0.47628888	          0.78981910	          0.28665463	
          0.85842982	        -15.03070994	          3.82932251	          0.93848777	         25.96942958	        -65.42239156	        -15.46708104	          4.23969039	         35.55995572	        -35.99418485	         13.48919272	          3.53712768	        -15.84083082	        -34.09812320	        -34.09812320	         21.41949835	         21.41949835	          0.05000082	          0.99999401	          0.05000023	          0.99998471	          0.94442280	          0.05000017	          0.20553286	          0.08986416	          0.54405041	          0.83967580	          0.05433606	          0.99998841	          0.05000023	          0.05000067	          0.98311392	          0.61115551	          0.84394517	          0.26378208	
